<svg width="150" height="150" viewBox="0 0 150 150" fill="none" xmlns="http://www.w3.org/2000/svg">
<g clip-path="url(#clip0_2982_61621)">
<path d="M75 150C116.421 150 150 116.421 150 75C150 33.5786 116.421 0 75 0C33.5786 0 0 33.5786 0 75C0 116.421 33.5786 150 75 150Z" fill="#06C4BB"/>
<g style="mix-blend-mode:multiply" opacity="0.13">
<path d="M116.078 52.6719H44.0781C40.3243 52.6719 37.2812 55.7149 37.2812 59.4688V108.375C37.2812 112.129 40.3243 115.172 44.0781 115.172H116.078C119.832 115.172 122.875 112.129 122.875 108.375V59.4688C122.875 55.7149 119.832 52.6719 116.078 52.6719Z" fill="#231F20"/>
</g>
<path d="M111 46.0938H39C35.2462 46.0938 32.2031 49.1368 32.2031 52.8906V101.797C32.2031 105.551 35.2462 108.594 39 108.594H111C114.754 108.594 117.797 105.551 117.797 101.797V52.8906C117.797 49.1368 114.754 46.0938 111 46.0938Z" fill="#FAFAFA"/>
<path d="M37.9063 46.0938H113.344C115.891 46.0938 117.969 48.1719 117.969 50.7187V57.0312H32.0312V51.9687C32.0312 48.7187 34.6719 46.0938 37.9063 46.0938Z" fill="#FF2950"/>
<path d="M39.0625 53.9062C40.3569 53.9062 41.4062 52.8569 41.4062 51.5625C41.4062 50.2681 40.3569 49.2188 39.0625 49.2188C37.7681 49.2188 36.7188 50.2681 36.7188 51.5625C36.7188 52.8569 37.7681 53.9062 39.0625 53.9062Z" fill="#FFC7D3"/>
<path d="M46.0938 53.9062C47.3882 53.9062 48.4375 52.8569 48.4375 51.5625C48.4375 50.2681 47.3882 49.2188 46.0938 49.2188C44.7993 49.2188 43.75 50.2681 43.75 51.5625C43.75 52.8569 44.7993 53.9062 46.0938 53.9062Z" fill="#FFC7D3"/>
<path d="M53.125 53.9062C54.4194 53.9062 55.4688 52.8569 55.4688 51.5625C55.4688 50.2681 54.4194 49.2188 53.125 49.2188C51.8306 49.2188 50.7812 50.2681 50.7812 51.5625C50.7812 52.8569 51.8306 53.9062 53.125 53.9062Z" fill="#FFC7D3"/>
<g style="mix-blend-mode:multiply" opacity="0.13">
<path d="M106.063 130.031C107.938 128.813 108.469 126.297 107.25 124.438L105.203 121.297L94.5157 104.875L93.0313 105.844L89.7657 100.828C97.2813 94.5938 99.0938 83.5782 93.6407 75.2032C87.7657 66.1876 75.6876 63.6251 66.6719 69.5157C57.6563 75.3907 55.0938 87.4688 60.9844 96.4844C66.4376 104.859 77.2501 107.656 85.9844 103.297L89.2501 108.313L87.7657 109.281L95.7501 121.547L100.5 128.844C101.719 130.719 104.234 131.25 106.094 130.031H106.063ZM85.5001 98.4532C78.5469 102.984 69.2344 101.016 64.7032 94.0626C60.1719 87.1094 62.1407 77.7969 69.0938 73.2657C76.0469 68.7344 85.3594 70.7032 89.8907 77.6563C94.4219 84.6094 92.4532 93.9219 85.5001 98.4532Z" fill="black"/>
</g>
<path d="M80.8899 98.6401L87.7808 109.219L91.5775 106.746L84.6867 96.1669L80.8899 98.6401Z" fill="#474643"/>
<path d="M91.5 103.359L104.234 122.906C105.453 124.781 104.922 127.281 103.047 128.5C101.172 129.719 98.6719 129.188 97.4531 127.313L84.7188 107.766L91.5 103.344V103.359Z" fill="#7D786F"/>
<path opacity="0.73" d="M89.7539 85.3786C90.4269 76.8273 84.0403 69.3496 75.4891 68.6766C66.9379 68.0036 59.4602 74.3902 58.7872 82.9414C58.1142 91.4927 64.5007 98.9704 73.052 99.6434C81.6032 100.316 89.0809 93.9298 89.7539 85.3786Z" fill="#ADFFF7"/>
<path d="M57.9376 94.9844C63.8126 104 75.8907 106.563 84.9063 100.672C93.9219 94.7969 96.4844 82.7188 90.5938 73.7032C84.7188 64.6876 72.6407 62.1251 63.6251 68.0157C54.6094 73.8907 52.0469 85.9688 57.9376 94.9844ZM86.8751 76.1407C91.4063 83.0938 89.4376 92.4063 82.4844 96.9376C75.5313 101.469 66.2188 99.5001 61.6876 92.5469C57.1563 85.5938 59.1251 76.2813 66.0782 71.7501C73.0313 67.2188 82.3438 69.1876 86.8751 76.1407Z" fill="#3B3B3B"/>
<path d="M74.5158 74.1881C74.3908 74.2974 74.2345 74.3755 74.0626 74.3755C71.4845 74.3287 69.0314 75.2974 67.172 77.0943C65.3126 78.8912 64.2658 81.313 64.2345 83.8912C64.2345 84.2505 63.9376 84.5318 63.5783 84.5162C63.2189 84.5162 62.9376 84.2193 62.9533 83.8599C63.0001 80.938 64.1876 78.2037 66.2814 76.1568C68.3908 74.1256 71.1564 73.0162 74.0783 73.0787C74.4376 73.0787 74.7189 73.3755 74.7033 73.7349C74.7033 73.9068 74.6251 74.0787 74.5001 74.1881H74.5158Z" fill="white"/>
</g>
<defs>
<clipPath id="clip0_2982_61621">
<rect width="150" height="150" fill="white"/>
</clipPath>
</defs>
</svg>
