<svg xmlns="http://www.w3.org/2000/svg" xmlns:xlink="http://www.w3.org/1999/xlink" width="59.728" height="38.568" viewBox="0 0 59.728 38.568">
  <defs>
    <clipPath id="clip-path">
      <rect id="Rectangle_59479" data-name="Rectangle 59479" width="55.092" height="25.167" transform="translate(0 0)" fill="none"/>
    </clipPath>
  </defs>
  <g id="plane" transform="matrix(0.966, -0.259, 0.259, 0.966, 0, 14.259)">
    <g id="Group_61498" data-name="Group 61498" clip-path="url(#clip-path)">
      <path id="Path_135038" data-name="Path 135038" d="M44.808,10.315h-25.9c-3.273,0-7.694-4.425-10.619-7.353C6.189.856,5.3,0,4.586,0H.624A.624.624,0,0,0,.039.844l3.82,10.211c-.614.3-1.668.816-2.64,1.381a.624.624,0,0,0-.118.992A25.479,25.479,0,0,0,3.18,15.195H.624v1.25H4.972a22.12,22.12,0,0,0,12.08,3.349h8.1v-1.25h-8.1a21.383,21.383,0,0,1-9.594-2.1H9.137v-1.25H5.277A22.72,22.72,0,0,1,2.587,13.1c1.182-.639,2.3-1.151,2.318-1.158a.624.624,0,0,0,.326-.787L1.525,1.25l3.006,0a18,18,0,0,1,2.879,2.6c3.253,3.258,7.711,7.719,11.5,7.719h25.9A14.114,14.114,0,0,1,52,13.276H47.844v1.25h5.608a1.745,1.745,0,0,1,.389,1c0,1.463-2,3.018-5.713,3.018H37.848v1.25h10.28c4.57,0,6.962-2.147,6.963-4.268,0-2.824-4.709-5.211-10.283-5.211"/>
      <path id="Path_135039" data-name="Path 135039" d="M35.563,16.428a36.667,36.667,0,0,0-8.172.994.625.625,0,0,0-.471.6V20.31a.626.626,0,0,0,.464.6,35.093,35.093,0,0,0,8.179.994.625.625,0,0,0,.625-.625v-4.23a.626.626,0,0,0-.625-.625m-.625,4.223a35.372,35.372,0,0,1-6.768-.833v-1.3a37.006,37.006,0,0,1,6.768-.838Z"/>
      <path id="Path_135040" data-name="Path 135040" d="M39.3,17.206h1.25a3.4,3.4,0,0,0-3.4-3.4H16.929v1.25H37.155A2.151,2.151,0,0,1,39.3,17.206"/>
      <rect id="Rectangle_59477" data-name="Rectangle 59477" width="12.771" height="1.25" transform="translate(14.775 23.917)"/>
      <rect id="Rectangle_59478" data-name="Rectangle 59478" width="4.654" height="1.25" transform="translate(7.621 23.917)"/>
    </g>
  </g>
</svg>
